<mxfile host="app.diagrams.net" modified="2022-10-05T10:40:27.823Z" agent="5.0 (Windows NT 10.0; Win64; x64) AppleWebKit/537.36 (KHTML, like Gecko) Chrome/105.0.0.0 Safari/537.36" etag="7cjpOrN5Jyh1PpfhTgT5" version="20.4.0" type="github">
  <diagram id="R2lEEEUBdFMjLlhIrx00" name="Page-1">
    <mxGraphModel dx="827" dy="438" grid="1" gridSize="10" guides="1" tooltips="1" connect="1" arrows="0" fold="1" page="1" pageScale="1" pageWidth="1169" pageHeight="827" math="0" shadow="0" extFonts="Permanent Marker^https://fonts.googleapis.com/css?family=Permanent+Marker">
      <root>
        <mxCell id="0" />
        <mxCell id="1" parent="0" />
        <mxCell id="nWsmJTP2L-feIXoF9uxJ-5" style="edgeStyle=orthogonalEdgeStyle;rounded=0;orthogonalLoop=1;jettySize=auto;html=1;exitX=0;exitY=0.5;exitDx=0;exitDy=0;entryX=1;entryY=0.5;entryDx=0;entryDy=0;endArrow=none;endFill=0;" edge="1" parent="1" source="nWsmJTP2L-feIXoF9uxJ-2" target="nWsmJTP2L-feIXoF9uxJ-4">
          <mxGeometry relative="1" as="geometry" />
        </mxCell>
        <mxCell id="nWsmJTP2L-feIXoF9uxJ-2" value="AUTOR" style="rounded=1;whiteSpace=wrap;html=1;fillColor=#dae8fc;strokeColor=#6c8ebf;" vertex="1" parent="1">
          <mxGeometry x="610" y="250" width="120" height="60" as="geometry" />
        </mxCell>
        <mxCell id="nWsmJTP2L-feIXoF9uxJ-10" style="edgeStyle=orthogonalEdgeStyle;rounded=0;orthogonalLoop=1;jettySize=auto;html=1;exitX=0.5;exitY=1;exitDx=0;exitDy=0;entryX=0.502;entryY=0.01;entryDx=0;entryDy=0;entryPerimeter=0;endArrow=none;endFill=0;" edge="1" parent="1" source="nWsmJTP2L-feIXoF9uxJ-3" target="nWsmJTP2L-feIXoF9uxJ-7">
          <mxGeometry relative="1" as="geometry" />
        </mxCell>
        <mxCell id="nWsmJTP2L-feIXoF9uxJ-27" style="edgeStyle=orthogonalEdgeStyle;rounded=0;orthogonalLoop=1;jettySize=auto;html=1;exitX=0.5;exitY=0;exitDx=0;exitDy=0;entryX=0.5;entryY=1;entryDx=0;entryDy=0;endArrow=none;endFill=0;dashed=1;" edge="1" parent="1" source="nWsmJTP2L-feIXoF9uxJ-3" target="nWsmJTP2L-feIXoF9uxJ-26">
          <mxGeometry relative="1" as="geometry" />
        </mxCell>
        <mxCell id="nWsmJTP2L-feIXoF9uxJ-3" value="LIBRO" style="rounded=1;whiteSpace=wrap;html=1;fillColor=#dae8fc;strokeColor=#6c8ebf;" vertex="1" parent="1">
          <mxGeometry x="310" y="250" width="120" height="60" as="geometry" />
        </mxCell>
        <mxCell id="nWsmJTP2L-feIXoF9uxJ-6" style="edgeStyle=orthogonalEdgeStyle;rounded=0;orthogonalLoop=1;jettySize=auto;html=1;exitX=0;exitY=0.5;exitDx=0;exitDy=0;entryX=1;entryY=0.5;entryDx=0;entryDy=0;endArrow=none;endFill=0;" edge="1" parent="1" source="nWsmJTP2L-feIXoF9uxJ-4" target="nWsmJTP2L-feIXoF9uxJ-3">
          <mxGeometry relative="1" as="geometry" />
        </mxCell>
        <mxCell id="nWsmJTP2L-feIXoF9uxJ-4" value="ESCRIBE" style="rhombus;whiteSpace=wrap;html=1;fillColor=#e1d5e7;strokeColor=#9673a6;" vertex="1" parent="1">
          <mxGeometry x="500" y="240" width="80" height="80" as="geometry" />
        </mxCell>
        <mxCell id="nWsmJTP2L-feIXoF9uxJ-11" style="edgeStyle=orthogonalEdgeStyle;rounded=0;orthogonalLoop=1;jettySize=auto;html=1;exitX=0.5;exitY=1;exitDx=0;exitDy=0;entryX=0.5;entryY=0;entryDx=0;entryDy=0;endArrow=none;endFill=0;" edge="1" parent="1" source="nWsmJTP2L-feIXoF9uxJ-7" target="nWsmJTP2L-feIXoF9uxJ-8">
          <mxGeometry relative="1" as="geometry" />
        </mxCell>
        <mxCell id="nWsmJTP2L-feIXoF9uxJ-7" value="CONTIENE" style="rhombus;whiteSpace=wrap;html=1;fillColor=#e1d5e7;strokeColor=#9673a6;" vertex="1" parent="1">
          <mxGeometry x="330" y="333" width="80" height="80" as="geometry" />
        </mxCell>
        <mxCell id="nWsmJTP2L-feIXoF9uxJ-23" style="edgeStyle=orthogonalEdgeStyle;rounded=0;orthogonalLoop=1;jettySize=auto;html=1;exitX=1;exitY=0.5;exitDx=0;exitDy=0;entryX=0;entryY=0.5;entryDx=0;entryDy=0;endArrow=none;endFill=0;" edge="1" parent="1" source="nWsmJTP2L-feIXoF9uxJ-8" target="nWsmJTP2L-feIXoF9uxJ-22">
          <mxGeometry relative="1" as="geometry" />
        </mxCell>
        <mxCell id="nWsmJTP2L-feIXoF9uxJ-8" value="BIBLIOTECA" style="rounded=1;whiteSpace=wrap;html=1;fillColor=#dae8fc;strokeColor=#6c8ebf;" vertex="1" parent="1">
          <mxGeometry x="310" y="440" width="120" height="60" as="geometry" />
        </mxCell>
        <mxCell id="nWsmJTP2L-feIXoF9uxJ-14" style="edgeStyle=orthogonalEdgeStyle;rounded=0;orthogonalLoop=1;jettySize=auto;html=1;exitX=0;exitY=0.5;exitDx=0;exitDy=0;entryX=1;entryY=0.5;entryDx=0;entryDy=0;endArrow=none;endFill=0;" edge="1" parent="1" source="nWsmJTP2L-feIXoF9uxJ-12" target="nWsmJTP2L-feIXoF9uxJ-13">
          <mxGeometry relative="1" as="geometry" />
        </mxCell>
        <mxCell id="nWsmJTP2L-feIXoF9uxJ-12" value="SOCIO" style="rounded=1;whiteSpace=wrap;html=1;fillColor=#dae8fc;strokeColor=#6c8ebf;" vertex="1" parent="1">
          <mxGeometry x="800" y="440" width="120" height="60" as="geometry" />
        </mxCell>
        <mxCell id="nWsmJTP2L-feIXoF9uxJ-13" value="PRESTAN" style="rhombus;whiteSpace=wrap;html=1;fillColor=#e1d5e7;strokeColor=#9673a6;" vertex="1" parent="1">
          <mxGeometry x="690" y="430" width="100" height="80" as="geometry" />
        </mxCell>
        <mxCell id="nWsmJTP2L-feIXoF9uxJ-25" style="edgeStyle=orthogonalEdgeStyle;rounded=0;orthogonalLoop=1;jettySize=auto;html=1;exitX=1;exitY=0.5;exitDx=0;exitDy=0;entryX=0;entryY=0.5;entryDx=0;entryDy=0;endArrow=none;endFill=0;" edge="1" parent="1" source="nWsmJTP2L-feIXoF9uxJ-21" target="nWsmJTP2L-feIXoF9uxJ-13">
          <mxGeometry relative="1" as="geometry" />
        </mxCell>
        <mxCell id="nWsmJTP2L-feIXoF9uxJ-21" value="BIBLIOTECARIO" style="rounded=1;whiteSpace=wrap;html=1;fillColor=#dae8fc;strokeColor=#6c8ebf;" vertex="1" parent="1">
          <mxGeometry x="550" y="440" width="120" height="60" as="geometry" />
        </mxCell>
        <mxCell id="nWsmJTP2L-feIXoF9uxJ-24" style="edgeStyle=orthogonalEdgeStyle;rounded=0;orthogonalLoop=1;jettySize=auto;html=1;exitX=1;exitY=0.5;exitDx=0;exitDy=0;entryX=0;entryY=0.5;entryDx=0;entryDy=0;endArrow=none;endFill=0;" edge="1" parent="1" source="nWsmJTP2L-feIXoF9uxJ-22" target="nWsmJTP2L-feIXoF9uxJ-21">
          <mxGeometry relative="1" as="geometry" />
        </mxCell>
        <mxCell id="nWsmJTP2L-feIXoF9uxJ-22" value="TRABAJA" style="rhombus;whiteSpace=wrap;html=1;fillColor=#e1d5e7;strokeColor=#9673a6;" vertex="1" parent="1">
          <mxGeometry x="450" y="430" width="80" height="80" as="geometry" />
        </mxCell>
        <mxCell id="nWsmJTP2L-feIXoF9uxJ-26" value="&lt;u&gt;Codigo_ISBN&lt;/u&gt;&lt;br&gt;Título&lt;br&gt;No Paginas&lt;br&gt;Autor/es&lt;br&gt;Temática" style="ellipse;whiteSpace=wrap;html=1;rounded=1;fillColor=#fff2cc;strokeColor=#d6b656;" vertex="1" parent="1">
          <mxGeometry x="300" y="140" width="140" height="80" as="geometry" />
        </mxCell>
      </root>
    </mxGraphModel>
  </diagram>
</mxfile>
